<svg width="17" height="17" viewBox="0 0 17 17" fill="none" xmlns="http://www.w3.org/2000/svg">
<path fill-rule="evenodd" clip-rule="evenodd" d="M0.225132 0.225154C0.525337 -0.0750513 1.01195 -0.0750513 1.31216 0.225154L8.49992 7.41292L15.6867 0.226155C15.9869 -0.0738406 16.4736 -0.0739805 16.7737 0.226155C17.0738 0.526294 17.0737 1.01297 16.7737 1.31318L9.58694 8.49994L16.7737 15.6867C17.0736 15.9869 17.0738 16.4736 16.7737 16.7737C16.4736 17.0738 15.9869 17.0736 15.6867 16.7737L8.49992 9.58697L1.31216 16.7747C1.01196 17.0749 0.525326 17.0749 0.225132 16.7747C-0.0750585 16.4745 -0.0750296 15.9879 0.225132 15.6877L7.4129 8.49994L0.225132 1.31218C-0.0750585 1.01199 -0.0750296 0.525363 0.225132 0.225154Z" fill="#FDFCFC"/>
</svg>
