<svg width="96" height="96" viewBox="0 0 96 96" fill="none" xmlns="http://www.w3.org/2000/svg">
<path d="M26 48C26 35.8497 35.8497 26 48 26C60.1503 26 70 35.8497 70 48C70 60.1503 60.1503 70 48 70C35.8497 70 26 60.1503 26 48Z" fill="white" style="mix-blend-mode:multiply"/>
<g opacity="0.67">
<mask id="mask0_0_361" style="mask-type:luminance" maskUnits="userSpaceOnUse" x="-50" y="-50" width="196" height="196">
<rect width="196" height="196" transform="translate(-50 -50)" fill="white"/>
<rect x="26" y="26" width="44" height="44" rx="22" fill="black"/>
</mask>
<g mask="url(#mask0_0_361)">
<foreignObject x="-14" y="-14" width="124" height="124"><div xmlns="http://www.w3.org/1999/xhtml" style="backdrop-filter:blur(20px);clip-path:url(#bgblur_0_0_361_clip_path);height:100%;width:100%"></div></foreignObject><g filter="url(#filter0_f_0_361)" data-figma-bg-blur-radius="40">
<rect x="26" y="26" width="44" height="44" rx="22" fill="black" fill-opacity="0.04" style="mix-blend-mode:hard-light"/>
</g>
</g>
</g>
<g opacity="0.9">
<path d="M26 48C26 35.8497 35.8497 26 48 26C60.1503 26 70 35.8497 70 48C70 60.1503 60.1503 70 48 70C35.8497 70 26 60.1503 26 48Z" fill="white" style="mix-blend-mode:color-dodge"/>
</g>
<g style="mix-blend-mode:color" opacity="0.7">
<path d="M26 48C26 35.8497 35.8497 26 48 26C60.1503 26 70 35.8497 70 48C70 60.1503 60.1503 70 48 70C35.8497 70 26 60.1503 26 48Z" fill="white" style="mix-blend-mode:color-dodge"/>
</g>
<path d="M26 48C26 35.8497 35.8497 26 48 26C60.1503 26 70 35.8497 70 48C70 60.1503 60.1503 70 48 70C35.8497 70 26 60.1503 26 48Z" fill="black" fill-opacity="0.01"/>
<path d="M58.5002 43.5H37.5002" stroke="black" stroke-width="1.5" stroke-linecap="round" stroke-linejoin="round"/>
<path d="M58.5002 52.5H37.5002" stroke="black" stroke-width="1.5" stroke-linecap="round" stroke-linejoin="round"/>
<defs>
<filter id="filter0_f_0_361" x="-14" y="-14" width="124" height="124" filterUnits="userSpaceOnUse" color-interpolation-filters="sRGB">
<feFlood flood-opacity="0" result="BackgroundImageFix"/>
<feBlend mode="normal" in="SourceGraphic" in2="BackgroundImageFix" result="shape"/>
<feGaussianBlur stdDeviation="10" result="effect1_foregroundBlur_0_361"/>
</filter>
<clipPath id="bgblur_0_0_361_clip_path" transform="translate(14 14)"><rect x="26" y="26" width="44" height="44" rx="22"/>
</clipPath></defs>
</svg>
